HIERARCHY
ROOT Hips
{
	OFFSET 8.91173 92.52490 -21.95620
	CHANNELS 6 Xposition Yposition Zposition Zrotation Xrotation Yrotation
	JOINT Spine
	{
		OFFSET 0.00000 14.09320 -1.51142
		CHANNELS 3 Zrotation Xrotation Yrotation
		JOINT Spine1
		{
			OFFSET 0.00000 8.69660 0.00000
			CHANNELS 3 Zrotation Xrotation Yrotation
			JOINT Spine2
			{
				OFFSET 0.00000 8.69660 0.00000
				CHANNELS 3 Zrotation Xrotation Yrotation
				JOINT Spine3
				{
					OFFSET 0.00000 8.69660 0.00000
					CHANNELS 3 Zrotation Xrotation Yrotation
					JOINT Neck
					{
						OFFSET 0.00000 11.18130 1.11813
						CHANNELS 3 Zrotation Xrotation Yrotation
						JOINT Neck1
						{
							OFFSET 0.00000 5.70631 0.00000
							CHANNELS 3 Zrotation Xrotation Yrotation
							JOINT Head
							{
								OFFSET 0.00000 5.70631 0.00000
								CHANNELS 3 Zrotation Xrotation Yrotation
								End site
								{
									OFFSET 0.00000 9.71257 0.00000
								}
							}
						}
					}
					JOINT RightShoulder
					{
						OFFSET 0.00000 7.98668 5.19711
						CHANNELS 3 Zrotation Xrotation Yrotation
						JOINT RightArm
						{
							OFFSET 0.00000 18.31580 0.00000
							CHANNELS 3 Zrotation Xrotation Yrotation
							JOINT RightForeArm
							{
								OFFSET 0.00000 28.87420 0.00000
								CHANNELS 3 Zrotation Xrotation Yrotation
								JOINT RightHand
								{
									OFFSET 0.00000 23.87720 0.00000
									CHANNELS 3 Zrotation Xrotation Yrotation
									JOINT RightHandThumb1
									{
										OFFSET -2.41094 4.67063 3.47303
										CHANNELS 3 Zrotation Xrotation Yrotation
										JOINT RightHandThumb2
										{
											OFFSET 0.00000 3.95207 0.00000
											CHANNELS 3 Zrotation Xrotation Yrotation
											JOINT RightHandThumb3
											{
												OFFSET 0.00000 2.15568 0.00000
												CHANNELS 3 Zrotation Xrotation Yrotation
												End site
												{
													OFFSET 0.00000 1.91616 0.00000
												}
											}
										}
									}
									JOINT RightHandIndex1
									{
										OFFSET 0.00000 12.45500 2.51496
										CHANNELS 3 Zrotation Xrotation Yrotation
										JOINT RightHandIndex2
										{
											OFFSET 0.00000 4.79039 0.00000
											CHANNELS 3 Zrotation Xrotation Yrotation
											JOINT RightHandIndex3
											{
												OFFSET 0.00000 2.63472 0.00000
												CHANNELS 3 Zrotation Xrotation Yrotation
												End site
												{
													OFFSET 0.00000 1.91616 0.00000
												}
											}
										}
									}
									JOINT RightHandMiddle1
									{
										OFFSET 0.00000 12.45500 -0.07984
										CHANNELS 3 Zrotation Xrotation Yrotation
										JOINT RightHandMiddle2
										{
											OFFSET 0.00000 5.38919 0.00000
											CHANNELS 3 Zrotation Xrotation Yrotation
											JOINT RightHandMiddle3
											{
												OFFSET 0.00000 3.11376 0.00000
												CHANNELS 3 Zrotation Xrotation Yrotation
												End site
												{
													OFFSET 0.00000 2.03592 0.00000
												}
											}
										}
									}
									JOINT RightHandRing1
									{
										OFFSET 0.00000 11.07780 -2.67464
										CHANNELS 3 Zrotation Xrotation Yrotation
										JOINT RightHandRing2
										{
											OFFSET 0.00000 4.91015 0.00000
											CHANNELS 3 Zrotation Xrotation Yrotation
											JOINT RightHandRing3
											{
												OFFSET 0.00000 3.11376 0.00000
												CHANNELS 3 Zrotation Xrotation Yrotation
												End site
												{
													OFFSET 0.00000 2.03592 0.00000
												}
											}
										}
									}
									JOINT RightHandPinky1
									{
										OFFSET 0.00000 9.70055 -5.26943
										CHANNELS 3 Zrotation Xrotation Yrotation
										JOINT RightHandPinky2
										{
											OFFSET 0.00000 3.95207 0.00000
											CHANNELS 3 Zrotation Xrotation Yrotation
											JOINT RightHandPinky3
											{
												OFFSET 0.00000 2.15568 0.00000
												CHANNELS 3 Zrotation Xrotation Yrotation
												End site
												{
													OFFSET 0.00000 1.91616 0.00000
												}
											}
										}
									}
								}
							}
						}
					}
					JOINT LeftShoulder
					{
						OFFSET 0.00000 7.98668 5.19711
						CHANNELS 3 Zrotation Xrotation Yrotation
						JOINT LeftArm
						{
							OFFSET 0.00000 18.31580 0.00000
							CHANNELS 3 Zrotation Xrotation Yrotation
							JOINT LeftForeArm
							{
								OFFSET 0.00000 28.87420 0.00000
								CHANNELS 3 Zrotation Xrotation Yrotation
								JOINT LeftHand
								{
									OFFSET 0.00000 23.87720 0.00000
									CHANNELS 3 Zrotation Xrotation Yrotation
									JOINT LeftHandThumb1
									{
										OFFSET 2.41094 4.67063 3.47303
										CHANNELS 3 Zrotation Xrotation Yrotation
										JOINT LeftHandThumb2
										{
											OFFSET 0.00000 3.95207 0.00000
											CHANNELS 3 Zrotation Xrotation Yrotation
											JOINT LeftHandThumb3
											{
												OFFSET 0.00000 2.15568 0.00000
												CHANNELS 3 Zrotation Xrotation Yrotation
												End site
												{
													OFFSET 0.00000 1.60000 0.00000
												}
											}
										}
									}
									JOINT LeftHandIndex1
									{
										OFFSET 0.00000 12.45500 2.51496
										CHANNELS 3 Zrotation Xrotation Yrotation
										JOINT LeftHandIndex2
										{
											OFFSET 0.00000 4.79039 0.00000
											CHANNELS 3 Zrotation Xrotation Yrotation
											JOINT LeftHandIndex3
											{
												OFFSET 0.00000 2.63472 0.00000
												CHANNELS 3 Zrotation Xrotation Yrotation
												End site
												{
													OFFSET 0.00000 1.91616 0.00000
												}
											}
										}
									}
									JOINT LeftHandMiddle1
									{
										OFFSET 0.00000 12.45500 -0.07984
										CHANNELS 3 Zrotation Xrotation Yrotation
										JOINT LeftHandMiddle2
										{
											OFFSET 0.00000 5.38919 0.00000
											CHANNELS 3 Zrotation Xrotation Yrotation
											JOINT LeftHandMiddle3
											{
												OFFSET 0.00000 3.11376 0.00000
												CHANNELS 3 Zrotation Xrotation Yrotation
												End site
												{
													OFFSET 0.00000 2.03592 0.00000
												}
											}
										}
									}
									JOINT LeftHandRing1
									{
										OFFSET 0.00000 11.07780 -2.67464
										CHANNELS 3 Zrotation Xrotation Yrotation
										JOINT LeftHandRing2
										{
											OFFSET 0.00000 4.91015 0.00000
											CHANNELS 3 Zrotation Xrotation Yrotation
											JOINT LeftHandRing3
											{
												OFFSET 0.00000 3.11376 0.00000
												CHANNELS 3 Zrotation Xrotation Yrotation
												End site
												{
													OFFSET 0.00000 2.03592 0.00000
												}
											}
										}
									}
									JOINT LeftHandPinky1
									{
										OFFSET 0.00000 9.70055 -5.26943
										CHANNELS 3 Zrotation Xrotation Yrotation
										JOINT LeftHandPinky2
										{
											OFFSET 0.00000 3.95207 0.00000
											CHANNELS 3 Zrotation Xrotation Yrotation
											JOINT LeftHandPinky3
											{
												OFFSET 0.00000 2.15568 0.00000
												CHANNELS 3 Zrotation Xrotation Yrotation
												End site
												{
													OFFSET 0.00000 1.91616 0.00000
												}
											}
										}
									}
								}
							}
						}
					}
				}
			}
		}
	}
	JOINT RightUpLeg
	{
		OFFSET -10.06560 0.00000 0.00000
		CHANNELS 3 Zrotation Xrotation Yrotation
		JOINT RightLeg
		{
			OFFSET 0.00000 -42.98740 0.00000
			CHANNELS 3 Zrotation Xrotation Yrotation
			JOINT RightFoot
			{
				OFFSET 0.00000 -44.62500 0.00000
				CHANNELS 3 Zrotation Xrotation Yrotation
				JOINT RightForeFoot
				{
					OFFSET 0.00000 -3.74821 0.00000
					CHANNELS 3 Zrotation Xrotation Yrotation
					JOINT RightToeBase
					{
						OFFSET 0.00000 0.00000 14.67920
						CHANNELS 3 Zrotation Xrotation Yrotation
						End site
						{
							OFFSET 0.00000 0.00000 10.36040
						}
					}
				}
			}
		}
	}
	JOINT LeftUpLeg
	{
		OFFSET 10.06560 0.00000 0.00000
		CHANNELS 3 Zrotation Xrotation Yrotation
		JOINT LeftLeg
		{
			OFFSET 0.00000 -42.98740 0.00000
			CHANNELS 3 Zrotation Xrotation Yrotation
			JOINT LeftFoot
			{
				OFFSET 0.00000 -44.62500 0.00000
				CHANNELS 3 Zrotation Xrotation Yrotation
				JOINT LeftForeFoot
				{
					OFFSET 0.00000 -3.74821 0.00000
					CHANNELS 3 Zrotation Xrotation Yrotation
					JOINT LeftToeBase
					{
						OFFSET 0.00000 0.00000 14.67920
						CHANNELS 3 Zrotation Xrotation Yrotation
						End site
						{
							OFFSET 0.00000 0.00000 10.67280
						}
					}
				}
			}
		}
	}
}
MOTION
Frames: 6
Frame Time: 0.333333333
15.7099 88.4755 -77.0501 -9.2061 0.220309 -177.804 -8.19996 0.584265 -0.647346 -1.30097 4.10981 0.500394 -1.95143 -1.33713 -1.58408 0.918313 1.75342 -1.33108 2.30391 13.5986 -2.61385 0.981076 3.39819 -7.89023 1.05335 -10.4226 -0.670725 90 0 0 78.591 5.38073 -27.6884 0.000107457 70.3832 48.3507 -3.85348 -5.95112 1.13373e-06 5.63743 28.1965 -2.67036 3.06904e-32 -3.97569e-16 4.42296e-15 9.31058e-32 -1.19271e-15 4.47266e-15 -67.8412 -5.56597e-15 -1.27222e-14 -6.36111e-15 3.97569e-15 3.18055e-15 -5.56597e-15 -7.95139e-16 -0.0 -63.9804 -1.59028e-15 -9.54166e-15 4.77083e-15 7.95139e-16 -0.0 4.41391e-31 3.97569e-15 -6.36111e-15 -49.2 -3.18055e-15 -0.0 -8.82781e-32 -1.59028e-15 -3.18055e-15 -3.18055e-15 0.0 -0.0 -36.2892 -6.36111e-15 -3.18055e-15 3.18055e-15 -9.54166e-15 -6.36111e-15 -3.18055e-15 3.18055e-15 -3.18055e-15 -90 0 0 -75.43 4.90963 47.3424 9.16716e-07 75.1987 -32.2207 -9.72697 -5.39854 1.21455e-06 -39.5091 1.81505 1.4961 -1.59028e-15 0.0 -6.36111e-15 -4.41391e-32 -7.95139e-16 -3.18055e-15 22.6981 3.18055e-15 -4.77083e-15 1.59028e-15 6.36111e-15 1.59028e-15 1.59028e-15 6.36111e-15 1.59028e-15 26.0995 3.18055e-15 -6.36111e-15 4.77083e-15 -6.36111e-15 -2.38542e-15 -7.94503e-31 -1.90833e-14 -2.38542e-15 -31.0905 3.18055e-15 1.27222e-14 -4.77083e-15 3.18055e-15 1.27222e-14 -4.77083e-15 -1.59028e-15 -0.0 -84.5059 -9.54166e-15 1.59028e-14 1.27222e-14 6.36111e-15 1.27222e-14 9.54166e-15 -3.18055e-15 6.36111e-15 -11.9541 -22.0497 -4.0192 -1.83866e-16 29.901 -2.29308e-16 2.86428 -17.7743 8.23227 0.0 0.0 -7.95139e-16 3.97569e-16 7.29294 -0.0 -11.9021 -7.17938 9.0291 4.23488e-16 21.9622 -8.57357e-15 5.37252 -18.5544 4.19911 0.0 0.0 -3.18055e-15 -1.31559e-16 1.21085 -3.18127e-15
15.7463 88.6497 -77.46 -8.84979 0.171627 -177.993 -7.55804 0.718858 -0.708208 -1.06792 4.08126 0.397271 -1.64486 -1.25472 -2.17391 1.37935 1.90919 -1.43289 2.99896 13.8136 -3.35416 1.28853 3.24109 -8.53041 1.51626 -10.5257 -0.769232 90 0 0 77.6408 8.66272 -20.7494 -8.03965e-06 72.1866 48.8658 -4.34854 2.58926 4.78526e-08 0.156252 28.4748 -0.0744962 -2.20695e-32 -1.59028e-15 -7.95139e-16 -2.20695e-32 -1.59028e-15 -7.95139e-16 -61.4083 5.56597e-15 -1.74931e-14 1.59028e-15 4.77083e-15 -1.59028e-15 -1.59028e-15 -1.59028e-15 1.59028e-15 -58.9925 5.56597e-15 -1.90833e-14 3.18055e-15 -6.36111e-15 -0.0 6.36111e-15 3.97569e-15 -3.18055e-15 -42.0311 -4.77083e-15 -9.54166e-15 -6.36111e-15 -7.95139e-15 3.18055e-15 -9.54166e-15 -1.27222e-14 1.59028e-15 -13.539 -1.59028e-15 -0.0 3.18055e-15 -6.36111e-15 7.95139e-16 3.18055e-15 0.0 -1.59028e-15 -90 0 0 -75.4172 5.09583 45.9792 -5.31032e-07 74.2955 -41.8523 -5.12324 0.113243 -1.21014e-09 -35.2105 13.555 9.3917 0.0 0.0 -3.18055e-15 -3.18055e-15 0.0 9.54166e-15 26.2839 0.0 -2.98177e-15 -1.78906e-15 3.18055e-15 1.59028e-15 -2.98177e-15 9.54166e-15 2.5345e-15 24.6066 0.0 -6.95746e-16 -1.39149e-15 -3.18055e-15 1.59028e-15 -1.09332e-15 3.18055e-15 2.5842e-15 -16.5058 -3.18055e-15 3.18055e-15 1.76556e-31 3.18055e-15 -3.18055e-15 -0.0 0.0 3.18055e-15 -62.0984 -1.98785e-15 1.27222e-14 1.19271e-15 -1.98785e-15 -1.59028e-14 -1.98785e-16 0.0 -9.54166e-15 -10.89 -21.1697 -1.64798 -1.17861e-15 29.1444 -3.2433e-15 3.0134 -23.6393 5.22359 -0.0 -3.18055e-15 -0.0 2.76671e-17 0.996714 -1.59052e-15 -11.6303 -6.59807 8.83821 -7.75953e-16 21.1596 -1.70525e-15 5.41584 -18.3028 4.55577 3.97569e-16 0.0 -0.0 1.98785e-16 1.6113 -0.0
16.4319 88.5949 -78.4965 -8.335 -0.260948 -177.459 -7.08234 0.475953 -0.690591 -1.10487 4.08596 0.39503 -1.66758 -1.4453 -2.31999 1.34389 1.73241 -1.44281 2.70117 14.0579 -2.49208 1.02632 2.09932 -6.66362 1.3528 -12.2603 -0.612511 90 0 0 78.1822 5.12169 -24.2952 -4.26052e-06 72.1719 50.1608 -5.31649 2.25826 1.66055e-08 2.45752 24.5596 -1.02196 6.89673e-32 -7.95139e-16 4.96962e-15 0.0 0.0 -7.95139e-16 -65.6259 -3.97569e-15 1.27222e-14 0.0 7.15625e-15 -0.0 1.59028e-15 7.95139e-16 3.18055e-15 -62.6113 0.0 1.27222e-14 -3.18055e-15 5.1684e-15 -0.0 1.59028e-15 1.98785e-15 -0.0 -45.3602 0.0 9.54166e-15 -6.36111e-15 0.0 -0.0 -6.36111e-15 -4.77083e-15 6.36111e-15 -19.8839 0.0 3.18055e-15 1.05934e-30 6.36111e-15 -9.54166e-15 -3.18055e-15 0.0 3.18055e-15 -90 0 0 -75.5013 4.28077 47.9017 6.08091e-06 74.1617 -40.7384 -5.02095 0.272756 -1.01343e-08 -35.0815 13.7716 9.49157 -3.18055e-15 0.0 3.18055e-15 -3.53113e-31 3.18055e-15 6.36111e-15 24.1233 3.18055e-15 -3.77691e-15 -1.98785e-16 1.27222e-14 -7.95139e-16 -1.39149e-15 1.59028e-14 -2.98177e-15 21.3962 0.0 -2.78299e-15 -0.0 0.0 3.97569e-16 -8.82781e-32 3.18055e-15 1.59028e-15 -17.5458 3.18055e-15 6.36111e-15 6.36111e-15 -3.18055e-15 -3.18055e-15 -1.76556e-31 3.18055e-15 3.18055e-15 -60.5245 -1.98785e-15 1.90833e-14 -5.96354e-16 9.93923e-16 -3.18055e-15 5.96354e-16 2.98177e-15 -0.0 -10.099 -21.0644 -2.27378 -4.51968e-16 29.1492 -3.35726e-15 1.66244 -18.8714 4.96823 3.97569e-16 -1.59028e-15 7.95139e-16 -9.87789e-17 7.08149 8.01251e-16 -10.6078 -6.85934 8.49058 -1.55138e-15 22.2207 5.15357e-15 4.83404 -19.2876 4.21607 -2.98177e-16 0.0 -0.0 -2.63213e-16 1.25952 -1.59066e-15
16.3745 88.9294 -78.9378 -8.00457 -1.33425 -174.844 -7.1844 -1.02682 -0.757078 -1.1206 3.65987 0.427794 -1.62721 -1.66577 -1.97 0.698879 0.904552 -1.29869 0.974124 8.96271 -0.990274 0.0140029 -2.16399 -4.10434 0.425626 -17.5851 -0.346165 90 0 0 76.2478 5.89537 -25.1777 0.000130853 69.7097 31.9378 22.0923 -5.86604 -2.36891e-06 9.95081 14.0425 -2.43758 6.36111e-15 -1.59028e-15 6.36111e-15 6.36111e-15 4.77083e-15 -1.59028e-15 -38.2008 3.18055e-15 -1.11319e-14 -1.59028e-15 0.0 -0.0 -1.59028e-15 0.0 -7.95139e-16 -39.5219 9.54166e-15 -1.19271e-14 1.59028e-15 -9.54166e-15 7.95139e-16 -8.82781e-32 6.36111e-15 7.95139e-16 -22.7737 -6.36111e-15 -5.06901e-15 1.98785e-16 0.0 2.98177e-16 -1.98785e-16 3.18055e-15 -6.95746e-16 33.2199 3.18055e-15 1.59028e-14 -0.0 0.0 3.18055e-15 0.0 1.59028e-15 -0.0 -90 0 0 -76.0251 4.52665 44.7654 -0.000194522 68.136 -30.5497 -8.12427 -1.46131 3.04587e-07 -33.8104 11.3056 7.47957 0.0 1.59028e-15 -0.0 -3.18055e-15 1.59028e-15 -0.0 20.7067 0.0 -7.95139e-16 -1.59028e-15 -3.18055e-15 -1.59028e-15 -7.95139e-16 -3.18055e-15 -0.0 17.0427 -6.36111e-15 1.59028e-15 3.18055e-15 -3.18055e-15 7.95139e-16 1.59028e-15 -6.36111e-15 -7.95139e-16 -17.6262 6.36111e-15 -0.0 3.18055e-15 -3.18055e-15 -9.54166e-15 -1.27222e-14 0.0 -3.18055e-15 -59.3155 5.96354e-15 -0.0 -1.98785e-16 -2.98177e-16 -3.18055e-15 1.98785e-16 -2.98177e-16 -6.36111e-15 -10.485 -20.3339 -3.79949 -8.92229e-17 27.7255 -4.49136e-16 1.26721 -18.7322 3.62479 3.97569e-16 -3.18055e-15 -0.0 1.95845e-16 7.22928 1.60302e-15 -10.6078 -6.37193 6.84185 -2.71903e-17 20.1254 -3.38738e-15 4.53334 -18.3096 2.98833 -3.97569e-16 1.59028e-15 -3.18055e-15 -4.69485e-16 0.989848 -1.59051e-15
15.9167 88.6074 -77.8084 -8.64645 0.207131 -171.837 -9.84281 -0.49282 -0.500418 -1.63544 3.76648 0.640105 -2.28795 -1.72693 -0.957815 -0.877929 1.19795 -1.18902 -1.31579 10.2951 0.824275 -1.31213 -1.10514 -2.85528 -1.57458 -16.3606 -0.111367 90 0 0 81.3713 4.22887 -38.6236 4.04179e-06 31.9659 -1.61945 21.2463 -5.52764 3.47498e-08 12.2583 5.53952 -1.20153 -3.97569e-15 3.18055e-15 -0.0 3.08973e-31 5.56597e-15 -3.18055e-15 -24.5596 9.54166e-15 3.18055e-15 1.59028e-15 3.18055e-15 -6.36111e-15 -1.59028e-15 -6.36111e-15 -6.36111e-15 -25.1388 6.36111e-15 9.54166e-15 -1.59028e-15 6.36111e-15 -0.0 0.0 0.0 -0.0 -12.767 3.18055e-15 3.18055e-15 -0.0 0.0 3.18055e-15 3.18055e-15 -1.59028e-15 3.18055e-15 26.0061 -3.18055e-15 -3.18055e-15 7.95139e-16 -5.56597e-15 -6.36111e-15 7.95139e-16 5.56597e-15 -3.18055e-15 -90 0 0 -74.6471 4.65937 31.1303 4.42741e-06 33.0523 -7.18937 -7.19387 -4.8924 6.73073e-08 -30.3116 4.83084 2.81861 -1.76556e-31 3.18055e-15 3.18055e-15 3.18055e-15 -3.18055e-15 -0.0 13.4993 0.0 -7.95139e-16 -7.95139e-16 -3.18055e-15 -0.0 -3.97569e-16 3.18055e-15 1.59028e-15 8.36761 3.18055e-15 -7.95139e-16 1.59028e-15 6.36111e-15 -2.38542e-15 1.76556e-31 6.36111e-15 -1.59028e-15 -13.9294 -3.18055e-15 -4.77083e-15 2.38542e-15 0.0 3.18055e-15 1.59028e-15 -3.18055e-15 -1.59028e-15 -48.2646 3.18055e-15 -3.18055e-15 8.34896e-15 3.18055e-15 -3.18055e-15 -2.38542e-15 1.59028e-15 3.18055e-15 -12.48 -19.612 -6.86782 -4.18883e-16 29.8258 -4.35358e-15 1.38232 -19.5743 3.94634 -3.97569e-16 -3.18055e-15 -2.38542e-15 -4.36921e-16 5.72504 -1.59825e-15 -11.5336 -6.22858 4.78257 1.04084e-15 22.0233 -1.71545e-15 4.75501 -18.4191 2.47424 -1.98785e-16 1.19271e-15 -3.18055e-15 -6.30387e-16 1.17725 -3.18123e-15
15.534 88.4084 -75.492 -8.57205 -0.16892 -169.532 -11.8033 1.77235 -0.34982 -2.09431 4.34618 0.834665 -2.91409 -1.03255 0.109257 -2.23923 2.13994 -1.01832 -2.80231 12.1277 4.36677 -1.1552 0.585512 3.44111 -1.65104 -14.0699 0.382777 90 0 0 77.8948 -5.67353 -30.8293 1.16731e-05 32.08 1.31091 22.4197 -5.61493 -1.64333e-06 11.8782 4.5831 -0.962871 2.5842e-15 -2.6339e-15 -0.0 2.5345e-15 0.0 -6.36111e-15 -24.162 3.18055e-15 -3.18055e-15 -4.77083e-15 -3.18055e-15 6.36111e-15 -7.95139e-16 -3.18055e-15 -3.18055e-15 -24.8722 1.59028e-15 -6.36111e-15 1.59028e-15 0.0 -0.0 -7.95139e-16 4.77083e-15 -0.0 -12.7215 3.18055e-15 -3.18055e-15 7.95139e-16 0.0 6.36111e-15 -1.59028e-15 0.0 6.36111e-15 26.9287 0.0 -6.36111e-15 6.36111e-15 -1.59028e-15 -6.36111e-15 7.95139e-16 3.18055e-15 -0.0 -90 0 0 -69.5561 -1.65615 25.3823 -1.1113e-06 30.8063 -8.09354 -8.70951 -5.421 8.75174e-08 -30.1827 4.51256 2.62001 -5.96354e-15 3.18055e-15 1.59028e-15 4.37326e-15 6.36111e-15 7.95139e-16 12.356 0.0 -7.95139e-16 -2.38542e-15 0.0 1.59028e-15 -2.5842e-15 1.59028e-15 -0.0 7.00465 0.0 -0.0 -2.38542e-15 0.0 7.95139e-16 -1.49089e-15 0.0 -0.0 -14.4952 0.0 1.49089e-15 -1.1368e-15 0.0 -7.57867e-16 2.15557e-15 0.0 -4.72114e-16 -47.8426 -1.59028e-15 1.59028e-15 7.55382e-15 1.59028e-15 7.95139e-16 4.17448e-15 0.0 -0.0 -13.6793 -21.1196 -8.55887 -4.14677e-16 31.2297 -4.18447e-15 -0.0114719 -25.3976 2.21636 1.98785e-16 0.0 -7.95139e-16 -2.07753e-16 -0.323115 -1.5903e-15 -12.3289 -8.61587 2.21882 1.27608e-15 23.4677 -5.20104e-15 5.32477 -17.6603 2.75651 7.95139e-16 -7.95139e-16 1.59028e-15 5.63604e-16 1.17979 1.59061e-15
